<svg width="1024" height="1024" viewBox="0 0 1024 1024" fill="none" xmlns="http://www.w3.org/2000/svg">
<path d="M512 1010.27C236.84 1010.27 13.7534 787.182 13.7534 512C13.7534 236.84 236.84 13.7306 512 13.7306C787.183 13.7306 1010.27 236.84 1010.27 512C1010.27 787.182 787.183 1010.27 512 1010.27ZM512 0.000138139C229.24 0.000138139 0 229.239 0 512C0 794.76 229.24 1024 512 1024C794.783 1024 1024 794.76 1024 512C1024 229.239 794.783 0.000138139 512 0.000138139Z" fill="#231F20"/>
<path d="M512.022 830.723C335.987 830.723 193.272 688.009 193.272 511.996C193.272 335.96 335.987 193.268 512.022 193.268C688.035 193.268 830.727 335.96 830.727 511.996C830.727 688.009 688.035 830.723 512.022 830.723ZM511.999 185.645C331.757 185.645 185.649 331.753 185.649 511.996C185.649 692.239 331.757 838.347 511.999 838.347C692.242 838.347 838.373 692.239 838.373 511.996C838.373 331.753 692.242 185.645 511.999 185.645Z" fill="#231F20"/>
<path d="M96.6809 528.509C107.471 528.509 116.225 519.755 116.225 508.965C116.225 498.175 107.471 489.42 96.6809 489.42C85.8908 489.42 77.1365 498.175 77.1365 508.965C77.1365 519.755 85.8908 528.509 96.6809 528.509Z" fill="#231F20"/>
<path d="M936.774 528.509C947.564 528.509 956.318 519.755 956.318 508.965C956.318 498.175 947.564 489.42 936.774 489.42C925.984 489.42 917.229 498.175 917.229 508.965C917.229 519.755 925.984 528.509 936.774 528.509Z" fill="#231F20"/>
<path d="M146.9 597.957L144.412 588.14L147.013 587.484L154.998 619.039L152.419 619.695L149.908 609.855L80.3491 627.477L82.815 637.317L80.2362 637.973L72.251 606.395L74.8298 605.738L77.318 615.579L146.9 597.957Z" fill="#231F20"/>
<path d="M159.251 640.479L155.224 631.409L157.667 630.323L167.711 652.944L132.988 710.197L133.078 710.4L180.854 689.228L176.126 678.55L178.569 677.464L188.658 700.176L186.192 701.261L182.166 692.191L113.443 722.661L112.109 720.987L158.346 644.664L158.256 644.483L94.9624 672.533L99.758 683.413L97.3375 684.499L87.1581 661.584L89.624 660.499L93.6276 669.592L159.251 640.479Z" fill="#231F20"/>
<path d="M223.176 752.41L217.295 744.652L219.421 743.046L238.898 768.607L236.771 770.258L230.618 762.16L173.523 805.637L179.676 813.736L177.527 815.342L158.051 789.757L160.177 788.128L166.081 795.888L194.47 774.262L174.134 747.57L145.745 769.196L151.649 776.954L149.523 778.56L130.024 752.975L132.172 751.347L138.325 759.423L195.42 715.946L189.267 707.87L191.417 706.242L210.893 731.826L208.767 733.454L202.863 725.695L176.26 745.941L196.597 772.656L223.176 752.41Z" fill="#231F20"/>
<path d="M197.14 829.959L190.354 823.941L188.589 825.932L206.573 841.947L208.36 839.934L199.877 832.402L221.91 819.486L236.907 832.832L226.275 855.859L217.883 848.395L216.096 850.408L242.087 873.504L243.897 871.514L236.455 864.907L268.124 791.73L266.518 790.282L197.14 829.959ZM238.423 829.687L224.941 817.698L250.186 803.289L250.344 803.447L238.423 829.687Z" fill="#231F20"/>
<path d="M330.151 841.584L321.125 837.444L322.211 835.023L352.138 848.64L351.03 851.084L341.325 846.673L320.062 893.317C314.293 906.007 314.293 913.246 330.196 920.462C348.7 928.899 354.061 922.091 359.422 910.305L380.346 864.43L369.737 859.612L370.845 857.169L392.652 867.099L391.544 869.519L383.287 865.765L361.888 912.749C355.757 926.185 348.79 932.632 325.762 922.136C302.146 911.369 302.327 902.682 308.321 889.517L330.151 841.584Z" fill="#231F20"/>
<path d="M415.047 875.74L405.297 873.84L405.818 871.216L430.09 875.944L457.167 937.179L457.393 937.224L467.369 885.919L455.9 883.68L456.42 881.056L480.806 885.807L480.308 888.431L470.558 886.53L456.194 960.343L454.091 960.478L417.965 878.885L417.739 878.839L404.528 946.814L416.201 949.077L415.68 951.724L391.069 946.928L391.589 944.304L401.339 946.205L415.047 875.74Z" fill="#231F20"/>
<path d="M506.163 888.86L496.029 888.882L496.006 886.213L528.581 886.145V888.814L518.446 888.836L518.582 960.612L528.716 960.59V963.259L496.165 963.327V960.657L506.299 960.635L506.163 888.86Z" fill="#231F20"/>
<path d="M547.537 886.505L538.828 887.953L538.398 885.306L570.768 880.013L571.198 882.659L560.227 884.447L587.146 937.538L587.372 937.493L597.076 878.429L586.105 880.216L585.675 877.57L608.251 873.883L608.681 876.529L600.786 877.818L587.01 956.788L584.68 957.172L547.537 886.505Z" fill="#231F20"/>
<path d="M628.067 870.081L618.611 873.815L617.638 871.303L675.118 848.637L684.415 870.421L681.791 871.439C671.68 854.948 667.246 854.608 644.308 863.679L639.468 865.58L651.751 896.684L657.18 894.534C668.875 889.92 667.992 885.282 663.581 874.424L666.59 873.226L680.094 907.451L677.086 908.65C672.019 896.141 670.119 893.041 658.424 897.656L652.972 899.805L665.821 932.357L681.045 926.34C696.404 920.277 698.372 910.573 694.866 895.417L697.558 894.353L706.335 919.236L645.96 943.057L644.965 940.568L654.397 936.836L628.067 870.081Z" fill="#231F20"/>
<path d="M742.099 895.377L733.639 900.987L735.109 903.227L761.937 885.515L760.444 883.275L752.346 888.636L732.372 858.37L738.05 854.614C749.564 847.036 754.111 849.615 762.548 860.835C771.732 873.005 775.329 876.692 786.3 869.454L792.883 865.111L791.412 862.871L789.15 864.364C783.654 867.983 779.83 863.776 773.089 854.524C763.001 840.77 757.753 841.63 743.185 848.914L743.072 848.733C751.012 841.924 755.649 834.482 748.75 824.031C740.131 810.979 730.449 813.874 719.003 821.43L692.627 838.825L694.12 841.064L702.58 835.477L742.099 895.377ZM712.828 828.713L717.51 825.615C726.717 819.552 733.051 822.493 738.57 830.862C743.434 838.259 744.859 846.109 736.851 851.402L730.54 855.564L712.828 828.713Z" fill="#231F20"/>
<path d="M792.249 832.445L794.353 830.363C803.627 838.665 817.743 840.046 826.678 831.223C833.057 824.935 836.088 815.411 828.827 808.059C814.214 793.265 789.648 827.965 770.94 809.054C761.349 799.305 764.245 785.665 773.316 776.707C777.84 772.251 784.739 768.179 790.756 766.007L803.107 777.589L801.116 779.602C790.62 772.68 782.002 772.839 774.808 779.942C769.447 785.235 767.185 793.242 773.18 799.305C786.775 813.058 810.459 778.426 830.75 798.966C841.155 809.507 837.559 825.206 828.035 834.617C822.335 840.227 816.431 844.389 808.106 847.442L792.249 832.445Z" fill="#231F20"/>
<path d="M810.075 740.444L803.989 748.588L801.863 746.982L821.317 720.877L823.489 722.461L817.404 730.605L874.928 773.516L881.013 765.372L883.162 766.978L863.686 793.083L861.537 791.5L867.599 783.356L810.075 740.444Z" fill="#231F20"/>
<path d="M845.43 687.442L841.223 695.721C836.201 705.651 844.435 714.429 853.189 719.36L851.719 722.256L829.686 711.058L860.767 649.824L882.8 661.021L881.33 663.917C872.191 659.732 860.179 658.374 855.18 668.191L850.972 676.493L914.379 708.66L919.74 698.073L922.137 699.273L905.828 731.417L903.43 730.195L908.814 719.608L845.43 687.442Z" fill="#231F20"/>
<path d="M908 623.679L868.323 633.995L866.016 642.703L863.414 642.025L872.259 608.817L874.838 609.518L871.965 620.332L906.869 612.007L880.471 588.345L877.643 598.954L875.064 598.276L880.923 576.221L883.502 576.899L881.353 585.043L910.941 611.758L946.026 621.077L948.582 611.463L951.183 612.143L942.836 643.54L940.235 642.839L942.881 632.931L908 623.679Z" fill="#231F20"/>
<path d="M290.361 185.871C297.261 181.641 298.346 170.873 292.804 161.802C287.262 152.731 277.173 148.794 270.297 153.002C263.397 157.209 262.311 167.978 267.853 177.049C273.395 186.12 283.485 190.055 290.361 185.871ZM252.426 186.481C243.106 171.235 248.038 151.238 263.465 141.827C278.847 132.417 298.912 137.123 308.209 152.369C317.529 167.615 312.62 187.612 297.193 197.022C281.788 206.455 261.746 201.728 252.426 186.481Z" fill="#231F20"/>
<path d="M268.101 131.65L262.468 122.42L246.566 132.125L252.221 141.354L231.5 154.022L237.97 164.609L295.291 129.569L288.822 118.982L268.101 131.65Z" fill="#231F20"/>
<path d="M310.81 97.4682L294.93 107.195L347.591 193.313L363.494 183.609L333.43 134.454L347.682 125.744L341.212 115.135L326.938 123.844L310.81 97.4682Z" fill="#231F20"/>
<path d="M545.048 51.1436V81.9302H538.353V51.1436H520.55V152.1H538.353V95.2995H545.048V152.1H562.828V51.1436H545.048Z" fill="#231F20"/>
<path d="M483.881 68.1059H511.999V55.6644H465.242V115.452C465.242 121.718 470.626 126.784 477.321 126.784H527.178V114.388H483.881V68.1059Z" fill="#231F20"/>
<path d="M149.659 345.077L172.846 357.36L205.013 296.578L216.029 302.391L180.763 368.964C177.641 374.891 170.629 377.266 165.087 374.326L140.95 361.544L149.659 345.077Z" fill="#231F20"/>
<path d="M118.08 271.624L126.789 255.179L186.35 286.69L177.641 303.159L118.08 271.624Z" fill="#231F20"/>
<path d="M131.019 334.444C134.774 327.363 132.263 318.677 125.432 315.058C118.601 311.439 110.05 314.266 106.295 321.346C102.517 328.426 105.028 337.113 111.86 340.71C118.691 344.352 127.264 341.524 131.019 334.444ZM103.467 356.567C90.2114 349.555 86.2301 331.028 94.6224 315.194C102.992 299.337 120.546 292.189 133.824 299.201C147.103 306.236 151.061 324.762 142.692 340.619C134.299 356.454 116.746 363.602 103.467 356.567Z" fill="#231F20"/>
<path d="M723.933 153.771C729.657 157.549 737.212 156.259 740.764 150.875C744.36 145.469 742.596 138.027 736.873 134.226C731.172 130.449 723.617 131.738 720.043 137.121C716.469 142.528 718.21 149.971 723.933 153.771ZM705.068 127.214C712.216 116.446 729.317 115.225 743.342 124.5C757.345 133.774 762.887 150.038 755.739 160.783C748.613 171.573 731.489 172.795 717.487 163.498C703.484 154.223 697.92 137.981 705.068 127.214Z" fill="#231F20"/>
<path d="M752.143 128.055L758.115 119.029L742.597 108.759L736.625 117.762L717.081 104.824L710.227 115.184L764.833 151.354L771.71 140.994L752.143 128.055Z" fill="#231F20"/>
<path d="M802.858 153.297L787.34 143.004L755.987 190.326L771.505 200.62L785.327 179.786L799.238 189.014L806.115 178.655L792.181 169.425L802.858 153.297Z" fill="#231F20"/>
<path d="M696.993 157.848L690.139 168.208L746.103 205.261L731.58 227.158L747.121 237.45L768.475 205.193L696.993 157.848Z" fill="#231F20"/>
<path d="M851.064 339.152L883.683 320.852L874.544 304.588L841.947 322.888L817.947 280.157L807.134 286.219L860.383 381.136L871.219 375.051L851.064 339.152Z" fill="#231F20"/>
<path d="M832.718 316.413L869.589 295.715L860.451 279.473L823.579 300.149" fill="#231F20"/>
<path d="M927.681 318.338L890.085 251.335L879.227 257.42L913.497 318.451L855.588 350.934L864.682 367.153L924.061 333.856C929.309 330.892 930.825 323.971 927.681 318.338Z" fill="#231F20"/>
<path d="M516.366 784.852L515.936 785.033L515.529 784.852L298.256 692.287L297.532 691.992L297.622 691.224L333.363 354.648L333.454 353.698H334.404H424.05V319.359C424.05 299.951 429.525 283.528 439.885 271.901C450.879 259.572 467.234 253.035 487.162 253.035H593.164H594.227V254.098V334.742H621.621H622.684V335.805V353.698H697.491H698.441L698.531 354.648L734.273 691.224L734.363 691.992L733.639 692.287L516.366 784.852ZM705.137 346.278H630.103V327.3H601.669V245.593H487.162C465.039 245.593 446.762 252.99 434.32 266.97C422.738 279.977 416.608 298.096 416.608 319.359V346.278H326.781L289.569 696.676L515.936 793.108L742.325 696.676L705.137 346.278Z" fill="#231F20"/>
<path fill-rule="evenodd" clip-rule="evenodd" d="M622.683 392.152H594.226V443.887H622.683V444.949V457.142H696.2L686.632 366.953H622.683V391.112V392.152Z" fill="#33BDF2"/>
<path fill-rule="evenodd" clip-rule="evenodd" d="M345.261 366.953L335.693 457.142H424.05V366.953H345.261Z" fill="#33BDF2"/>
<path fill-rule="evenodd" clip-rule="evenodd" d="M697.49 469.31H622.683V500.866H594.226V543.461V544.524H593.163H506.751H505.688V543.461V469.31H472.39V477.793C472.39 520.93 432.283 543.484 392.651 543.484H389.733H388.67V542.421V497.812V496.772H389.733H391.226C409.934 496.772 424.049 486.932 424.049 473.902V469.31H334.38L311.646 683.711L515.935 770.732L720.246 683.711L697.49 469.31Z" fill="#1C63B7"/>
<path fill-rule="evenodd" clip-rule="evenodd" d="M472.391 457.142H505.686V366.95H472.391V457.142Z" fill="#33BDF2"/>
<path fill-rule="evenodd" clip-rule="evenodd" d="M498.314 346.279H479.811V319.768C479.811 306.875 487.977 302.305 494.944 302.305H498.314V346.279ZM494.944 294.886C484.086 294.886 472.391 302.667 472.391 319.768V353.7H505.689V294.886H494.944Z" fill="#231F20"/>
<path d="M419.865 610.33V616.099H434.161V664.938H441.604V597.889H435.767C434.704 608.362 429.434 610.15 419.865 610.33Z" fill="white"/>
<path d="M480.014 635.075C471.35 635.075 469.563 626.93 469.563 619.94C469.563 613.131 471.531 604.559 479.924 604.559C488.859 604.559 490.917 613.968 490.917 621.117C490.917 628.084 488.407 635.075 480.014 635.075ZM479.652 597.863C469.473 597.863 461.872 606.979 461.872 621.276C461.872 632.111 467.143 641.747 479.109 641.747C483.95 641.747 488.881 639.259 491.46 633.536H491.641C491.279 640.684 491.37 659.617 480.014 659.617C473.703 659.617 471.102 656.405 471.102 650.32H463.501C463.772 659.98 469.224 666.313 479.155 666.313C498.428 666.313 498.971 642.991 498.971 629.034C498.971 615.19 497.636 597.863 479.652 597.863Z" fill="white"/>
<path d="M535.547 620.959C530.91 620.959 527.856 622.564 524.757 625.777L527.675 605.938H550.206V599.242H521.703L517.767 633.739H524.372C526.182 629.622 529.304 627.654 533.76 627.654C543.216 627.654 544.912 635.708 544.912 643.422C544.912 651.723 542.062 659.617 534.19 659.617C526.634 659.617 523.943 654.596 524.304 647.448H516.614C516.071 659.256 522.518 666.313 534.371 666.313C548.238 666.313 552.603 654.166 552.603 642.245C552.603 631.319 547.876 621.049 535.547 620.959Z" fill="white"/>
<path d="M587.508 641.479H568.982L587.508 609.494V641.479ZM594.928 641.479V597.867H588.119L563.078 641.321V648.176H587.508V664.938H594.928V648.176H600.923V641.479H594.928Z" fill="white"/>
</svg>
